<svg xmlns="http://www.w3.org/2000/svg" id="svg2558" xml:space="preserve" y="0" x="0" version="1.1" viewBox="-89.55 -46.3 776.1 277.8"><style id="style2528" type="text/css">.st1{fill:#333}</style>
<g transform="translate(200 -.9)" id="Layer_2"><path id="path2533" d="M161.5 186.1H25.7C12.1 186.1 1 175 1 161.4V25.6C1 12 12.1.9 25.7.9h135.8c13.6 0 24.7 11.1 24.7 24.7v135.8c.1 13.6-11.1 24.7-24.7 24.7z" fill="#0595db"/><path id="path2543" d="M166.6 60h-19.9l-7.5 15.1-7.5-15.1h-19.9l17 33.5-15.4 30.3V75.1c0-2.2-.9-5.2-1.9-6.9-1-1.7-2.3-3.2-3.9-4.4-1.6-1.2-3.5-2.1-5.6-2.8-2.2-.6-4.4-1-6.8-1-4.1 0-7.7.7-10.6 2-2.9 1.3-5.5 3.4-7.9 6.2-1.6-2.6-3.8-4.6-6.5-6-2.7-1.5-5.9-2.2-9.4-2.2-3.8 0-7 .6-9.7 1.7-2.7 1.2-5.1 3.2-7 6.1h-.3V60H23.9v67h19.9V78.8c0-4 3.4-7.2 7.5-7.2s7.4 3.2 7.5 7.2V127h19.8V78.9c0-4 3.4-7.2 7.5-7.2s7.4 3.2 7.5 7.2V127h38.1l7.5-15.1 7.5 15.1h19.9l-17-33.5z" fill="#fff"/></g></svg>